<svg data-name="Layer 1" xmlns="http://www.w3.org/2000/svg" viewBox="0 0 88 88" height="88" width="88" style="display: block; height: 100%; width: 100%;"><title>Decorative Illustration</title><desc>Decorative Illustration</desc>
    <path d="M71.6 64.25H88v8.31a1.81 1.81 0 0 1-1.81 1.81H73.41a1.81 1.81 0 0 1-1.81-1.81v-8.31zm-71.6 0h16.4v8.31a1.81 1.81 0 0 1-1.81 1.81H1.81A1.81 1.81 0 0 1 0 72.56v-8.31z"></path>
    <path d="M17.76 33.35l-4.06-2.2-1.93-1q-4.39-2.38-9-4.33A2 2 0 0 0 0 27.62v1.82a3.9 3.9 0 0 0 3.9 3.9zm52.48 0l4.06-2.2 1.93-1q4.39-2.38 9-4.33a2 2 0 0 1 2.77 1.8v1.82a3.9 3.9 0 0 1-3.9 3.9z" fill="#a5a5a5"></path>
    <path d="M78.2 27.79l-4.05-7.27a18.07 18.07 0 0 0-15.79-9.28H29.64a18.07 18.07 0 0 0-15.79 9.28L9.8 27.79a11.32 11.32 0 0 1-2.1 2.9L3.26 40.2A34.61 34.61 0 0 0 0 54.86v13.88h88V54.86a34.61 34.61 0 0 0-3.26-14.66l-4.44-9.51a11.32 11.32 0 0 1-2.1-2.9z" fill="#a5a5a5"></path>
    <path d="M59.66 14.78H28.35a13.25 13.25 0 0 0-11.63 6.9L12.5 29.4a1.09 1.09 0 0 0 1 1.61h61.05a1.09 1.09 0 0 0 1-1.61l-4.22-7.72a13.25 13.25 0 0 0-11.67-6.9z" fill="#f5f5f5"></path>
    <path d="M75.51 29.4l-4.22-7.72a13.25 13.25 0 0 0-11.63-6.9h-26.9L48.9 31h25.65a1.09 1.09 0 0 0 .96-1.6zM88 68.74H0v-2.18h88zM26.31 48h35.38A1.32 1.32 0 0 1 63 49.32v1.32a2.64 2.64 0 0 1-2.64 2.64H27.63A2.64 2.64 0 0 1 25 50.63v-1.31A1.32 1.32 0 0 1 26.31 48z"></path>
    <path d="M80 49.5l-2.3 2.29a5.08 5.08 0 0 1-3.59 1.49h-7.76a2 2 0 0 1-2-2A3.33 3.33 0 0 1 67.72 48h11.65a.88.88 0 0 1 .63 1.5z" fill="#fff"></path>
    <ellipse cx="44" cy="50.63" rx="2.05" ry="1.09" fill="#fff"></ellipse>
    <path d="M77.83 63l-2.23-2.23a2 2 0 0 0-1.45-.6h-60.3a2 2 0 0 0-1.45.6L10.18 63a.74.74 0 0 0 .52 1.27h66.61a.74.74 0 0 0 .52-1.27z"></path>
    <rect x="37.33" y="57.79" width="13.34" height="4.75" rx=".72" ry=".72" style="fill: rgb(88, 121, 218);"></rect>
    <path d="M8 49.5l2.29 2.29a5.08 5.08 0 0 0 3.59 1.49h7.76a2 2 0 0 0 2-2A3.33 3.33 0 0 0 20.29 48H8.64A.88.88 0 0 0 8 49.5z" fill="#fff"></path>
</svg>