<svg data-name="Layer 1" xmlns="http://www.w3.org/2000/svg" viewBox="0 0 88 88" height="88" width="88" style="display: block; height: 100%; width: 100%;"><title>Decorative Illustration</title><desc>Decorative Illustration</desc>
    <path d="M74 61.21h14v8.62a1.55 1.55 0 0 1-1.55 1.55H75.5a1.55 1.55 0 0 1-1.5-1.54v-8.63zm-74 0h14v8.62a1.55 1.55 0 0 1-1.55 1.55H1.55A1.55 1.55 0 0 1 0 69.84v-8.63z"></path>
    <path d="M86 39.14l-3.65-4.47c-.15-.19-.32-.37-.49-.55a9.7 9.7 0 0 1-1.55-2.22l-3.55-6.37a15 15 0 0 0-13.45-8.19H45.53L45 16a.85.85 0 0 0-.67-.33h-.34a.85.85 0 0 0-.67.33l-.59 1.38h-18a15 15 0 0 0-13.45 8.19L7.72 31.9a9.7 9.7 0 0 1-1.8 2.49L2 39.14a9.06 9.06 0 0 0-2 5.73v21.26h88V44.87a9.06 9.06 0 0 0-2-5.73z"></path>
    <path fill="#3e3e3e" d="M0 63.74h88v2.38H0z"></path>
    <path d="M15.22 35.52l-3.48-1.88-1.66-.9q-3.76-2-7.7-3.71A1.72 1.72 0 0 0 0 30.61v1.56a3.34 3.34 0 0 0 3.34 3.34zm57.56 0l3.48-1.88 1.66-.9q3.76-2 7.7-3.71A1.72 1.72 0 0 1 88 30.61v1.56a3.34 3.34 0 0 1-3.34 3.34z"></path>
    <path d="M69 47.61l14.31-2.4a.45.45 0 0 1 .37.79l-5.41 4.66a5.31 5.31 0 0 1-3.47 1.29h-9.32a1.14 1.14 0 0 1-.78-2l.54-.51A7.16 7.16 0 0 1 69 47.61zm-50 0l-14.27-2.4a.45.45 0 0 0-.37.79l5.41 4.66a5.31 5.31 0 0 0 3.47 1.29h9.29a1.14 1.14 0 0 0 .78-2l-.54-.51A7.16 7.16 0 0 0 19 47.61z" fill="#fff"></path>
    <path d="M71.95 56.87h9a1.08 1.08 0 0 1 .76 1.84s-2 2.74-4.47 2.74h-1.02a5.28 5.28 0 0 1-3.44-1.79l-1.4-1.4a.82.82 0 0 1 .57-1.39zm-.61 3.25L69 57.79a3.17 3.17 0 0 0-2.24-.93h-45.3a3.17 3.17 0 0 0-2.24.93l-2.34 2.34a.78.78 0 0 0 .55 1.33h53.36a.78.78 0 0 0 .55-1.34zm-55.06-3.25h-9a1.08 1.08 0 0 0-.76 1.84s2 2.74 4.47 2.74H12a5.28 5.28 0 0 0 3.44-1.79l1.4-1.4a.82.82 0 0 0-.56-1.39z" fill="#3e3e3e"></path>
    <circle cx="44.11" cy="43.12" r="1.22" fill="#fff"></circle>
    <path d="M64.87 45.9a.58.58 0 0 0-.55-.38H23.94a.58.58 0 0 0-.38 1l8.23 7.05a.58.58 0 0 0 .38.14h23.92a.58.58 0 0 0 .38-.14l8.23-7.05a.58.58 0 0 0 .17-.62zm-21.11.79v1.12H26.82l-1.31-1.12zm-14.54 3.18h14.55V51H30.53zm15 0H59L57.73 51h-13.5zm0-.47v-1.12H60.9l-1.31 1.12zm-.47 0H28.68l-1.31-1.12h16.4zm-12.67 2.06h12.69v1.12H32.39zm24.8 1.12H44.23v-1.12h13zm5.56-4.77H44.23v-1.12h18.52z" fill="#fff"></path>
    <rect x="38.26" y="59.24" width="11.43" height="4.06" rx=".62" ry=".62" fill="#d6d6d5"></rect>
    <path d="M14.33 26.39L11 32.89a.93.93 0 0 0 .83 1.36H47.5L33.4 20.11h-8.81a11.52 11.52 0 0 0-10.26 6.28z" fill="#fff"></path>
    <path d="M77.06 32.88l-3.46-6.6a11.52 11.52 0 0 0-10.2-6.17h-30l14.1 14.14h28.73a.93.93 0 0 0 .83-1.37z" fill="#3e3e3e"></path>
</svg>