<svg data-name="Layer 1" xmlns="http://www.w3.org/2000/svg" viewBox="0 0 88 88" height="88" width="88" style="display: block; height: 100%; width: 100%;"><title>illustration of uberPOOL product</title><desc>illustration of uberPOOL product</desc>
    <defs>
        <clipPath id="a___m9Bnt1Tc">
            <path fill="none" d="M0 0h88v88H0z"></path>
        </clipPath>
    </defs>
    <circle cx="34.88" cy="18.27" r="3.78" fill="#f1f1f1"></circle>
    <path d="M34.88 24.73h3a.83.83 0 0 0 .83-.83v-5.63h-3.84z" fill="#f1f1f1"></path>
    <path d="M38.66 18.68a1.71 1.71 0 0 0 .51 1.2 1 1 0 0 1 .3.72v.16h-.8" fill="#f1f1f1"></path>
    <path d="M46.75 28.2H25.4s-3.76.45-3.76 4v5.09L50 47.76z"></path>
    <path d="M31.1 18.75V29a2.5 2.5 0 0 0 5 0V18.75z" fill="#f1f1f1"></path>
    <path d="M34.88 14.49a3.79 3.79 0 0 0-3.79 3.79v3.21h.46a1.33 1.33 0 0 0 1.33-1.33v-.83a.58.58 0 0 1 .58-.59.58.58 0 0 1 .58.58v.41H35v-1a1 1 0 0 1 1-1V17a.52.52 0 0 1 .52-.52h1.71l.36-.36a1.38 1.38 0 0 0 .4-1 .66.66 0 0 0-.66-.66h-3.45z"></path>
    <path d="M38.19 40v-8.33s.42-3.55 3.36-3.55h16.38s3.15.12 3.15 3.06v16.65l-3.36-.68V35.24s-1.26 7.21-1.68 8 .14 3.94.14 3.94l-13-2.33.14-3.07-1.39-4.39v5.35z" fill="#d6d6d5"></path>
    <path d="M45.29 21.48H47v8.79h-3v-7.53a1.27 1.27 0 0 1 1.29-1.26z" fill="#221f1f"></path>
    <circle cx="51.03" cy="18.56" r="4.08" fill="#787878"></circle>
    <path fill="#787878" d="M52.35 28.95l-2.72 3.3-2.68-3.3v-8.27h5.4v8.27z"></path>
    <path d="M51 24.28h3.32a.76.76 0 0 0 .76-.76v-5H51z" fill="#787878"></path>
    <path d="M51 14.49a4.08 4.08 0 0 0-4 4.07v5.9l1.41-1.41a1.78 1.78 0 0 0 .52-1.26v-2.08a.63.63 0 0 1 .63-.63.63.63 0 0 1 .63.63v1.56l4.6-4.6a1.27 1.27 0 0 0-.9-2.17z" fill="#221f1f"></path>
    <path d="M55.11 19v1.62h.41a.19.19 0 0 0 .13-.32 1.84 1.84 0 0 1-.54-1.3z" fill="#787878"></path>
    <path fill="#fff" d="M49.806 21.616l.339-.34.34.34-.34.34z"></path>
    <g clip-path="url(#a___m9Bnt1Tc)">
        <circle cx="65.11" cy="61.74" r="8.67"></circle>
        <path d="M73.68 51.87l-20.83-6.3Q51 45 49.28 44.31l-7.4-3A95.94 95.94 0 0 0 5.69 34.2h-24.94a95.94 95.94 0 0 0-24.27 3.17l-17 4.43a.78.78 0 0 0-.58.75v10.57a.78.78 0 0 1-.23.54l-2 2.12A5.5 5.5 0 0 0-65 59.66v1.95a5.55 5.55 0 0 0 5.55 5.55H78.07A2.2 2.2 0 0 0 80.28 65v-4.28a9.3 9.3 0 0 0-6.6-8.85z" fill="#3c9ec5"></path>
        <path d="M5.73 37.53h.07l2.67.77.31.1 1 .31.35.11 1.11.37h.2l1.29.45.28.1 1 .37.41.16.91.34.38.14 1.25.5 7.36 3q1.75.71 3.57 1.26h15.69a.78.78 0 0 0 .3-1.51l-2.65-1.08A93.62 93.62 0 0 0 5.69 36H-.36q3.06.72 6.09 1.53z" fill="#b9e3e7"></path>
        <path d="M43.85 44.14l-2.65-1.08a93.84 93.84 0 0 0-19.9-5.69l8.22 8.22h14a.78.78 0 0 0 .37-1.45z"></path>
        <path d="M54.83 53h-9.26a.71.71 0 0 0-.5 1.21l1.68 1.68a4.46 4.46 0 0 0 3.16 1.31h9.25a.71.71 0 0 0 .5-1.21L58 54.28A4.46 4.46 0 0 0 54.83 53z" fill="#fff"></path>
        <path d="M18.63 45.63a.78.78 0 0 0 .3-1.51L16.3 43a94.07 94.07 0 0 0-56.59-4.55 1.58 1.58 0 0 0-1.25 1.85 1.58 1.58 0 0 0 .47.85l2.74 2.71a5.93 5.93 0 0 0 4.19 1.74z"></path>
        <path d="M20 46.42l-3.67-1.49q-3-1.22-6-2.22a.78.78 0 0 0-1 .74v4.48h10.36A.78.78 0 0 0 20 46.4z" fill="#3c9ec5"></path>
        <path d="M55.13 65.94h-118a5.53 5.53 0 0 0 3.49 1.25H53.14a2.2 2.2 0 0 0 1.99-1.25z"></path>
        <path d="M76.45 57.15h3.08a9.31 9.31 0 0 0-1.9-2.84L76 55.93a.71.71 0 0 0 .44 1.21z" fill="#fff"></path>
        <path d="M66.23 55.9H61a.16.16 0 0 0-.11.27l.75.75a.78.78 0 0 0 .54.23h5.33a.16.16 0 0 0 0-.31l-.75-.75a.78.78 0 0 0-.53-.19zm3.51 1.25h3.71a.78.78 0 0 0 .54-.23l.75-.75a.16.16 0 0 0-.11-.27h-3.71a.78.78 0 0 0-.54.23l-.75.75a.16.16 0 0 0 .11.27zM79 65.94l-3-3.06a3.9 3.9 0 0 0-2.76-1.14H62.4a3.9 3.9 0 0 0-2.76 1.14l-3.06 3.06h-4.26v1.25h25.75a2.19 2.19 0 0 0 2-1.25z"></path>
        <circle cx="68.59" cy="55.63" r=".94" fill="#fff"></circle>
        <path d="M22 67.19v-5.45a10 10 0 0 1 19.89 0v5.45"></path>
        <circle cx="31.95" cy="61.74" r="8.67"></circle>
        <circle cx="31.95" cy="61.74" r="5.84" fill="#fff"></circle>
        <path d="M34.78 58.9L32.67 61a1 1 0 0 1 0 1.42l2.1 2.17a4 4 0 0 0 0-5.69zM31.22 61l-2.13-2.1a4 4 0 0 0 0 5.69l2.13-2.06a1 1 0 0 1-.06-1.47zm40.87 2.15h-7a.43.43 0 0 0-.43.43v1.93a.43.43 0 0 0 .43.43h7a.43.43 0 0 0 .43-.43v-1.93a.43.43 0 0 0-.43-.43z" fill="#fff"></path>
    </g>
</svg>