<svg xmlns="http://www.w3.org/2000/svg" viewBox="0 0 88 88" height="88" width="88" style="display: block; height: 100%; width: 100%;"><title> </title><desc> </desc>
    <path d="M48.12.18H68v88H48.12z"></path>
    <path fill="#fff" d="M52.35 2.87H64.6V85.5H52.35z"></path>
    <path d="M.22.18h61.57v88H.22z" style="fill: rgb(88, 121, 218);"></path>
    <path d="M.22 12.36V.18h12.17L.22 12.36zm61.57 0V.18H49.61l12.18 12.18zM.22 76v12.18h12.17L.22 76zm61.57 0v12.18H49.61L61.79 76z"></path>
    <path d="M27.09 28.27c0-2.34-.59-9.53-.84-12.49a1.41 1.41 0 0 0-1.41-1.29v11.4a.65.65 0 1 1-1.3 0V15a.65.65 0 0 0-.65-.65.65.65 0 0 0-.65.65v10.89a.65.65 0 1 1-1.3 0V15a.65.65 0 0 0-.65-.65.65.65 0 0 0-.65.65v10.89a.65.65 0 1 1-1.3 0V14.5A1.41 1.41 0 0 0 17 15.79c-.25 3-.84 10.14-.84 12.49a5.53 5.53 0 0 0 3.3 5 1.43 1.43 0 0 1 .81 1.38L18.71 71a2.89 2.89 0 1 0 5.78 0L23 34.67a1.43 1.43 0 0 1 .81-1.38 5.53 5.53 0 0 0 3.28-5.02zm18.8-4.09c0-5.42-2.89-9.81-6.46-9.81S33 18.76 33 24.18c0 4.27 1.79 7.9 4.3 9.25a1.43 1.43 0 0 1 .7 1.31L36.54 71a2.89 2.89 0 1 0 5.78 0l-1.5-36.24a1.43 1.43 0 0 1 .78-1.31c2.5-1.37 4.29-5 4.29-9.27z" fill="#d6d6d5"></path>
    <path d="M47.38 45.28H36a4.34 4.34 0 0 1-4-2.76l-.48-1.22a.49.49 0 0 0-.9 0l-.48 1.22a4.34 4.34 0 0 1-4 2.76H14.63a3.92 3.92 0 0 0-3.91 3.91v12.52a3.92 3.92 0 0 0 3.91 3.91H26a4.34 4.34 0 0 1 4 2.76l.48 1.22a.49.49 0 0 0 .9 0l.48-1.22a4.34 4.34 0 0 1 4-2.76h11.4a3.92 3.92 0 0 0 3.91-3.91V49.19a3.92 3.92 0 0 0-3.79-3.91z" fill="#fff"></path>
    <path d="M23.4 51.82h13.99v2H23.4zm-6.33 5.26h26.65v2H17.07z"></path>
</svg>